<?xml version="1.0" encoding="us-ascii" standalone="no"?><svg xmlns="http://www.w3.org/2000/svg" xmlns:xlink="http://www.w3.org/1999/xlink" contentStyleType="text/css" height="716px" preserveAspectRatio="none" style="width:1069px;height:716px;background:#FFFFFF;" version="1.1" viewBox="0 0 1069 716" width="1069px" zoomAndPan="magnify"><defs/><g><text fill="#000000" font-family="sans-serif" font-size="14" font-weight="bold" lengthAdjust="spacing" textLength="429" x="313.25" y="23.5352">Escenario: Operario Juan lanza lote desde Puesto Soldadura</text><g id="elem_op"><rect fill="#F1F1F1" height="61.4648" style="stroke:#181818;stroke-width:0.5;" width="177" x="435" y="182.9583"/><text fill="#000000" font-family="sans-serif" font-size="14" lengthAdjust="spacing" textLength="103" x="472" y="198.4934">juan : Operario</text><line style="stroke:#181818;stroke-width:0.5;" x1="436" x2="611" y1="203.4466" y2="203.4466"/><text fill="#000000" font-family="sans-serif" font-size="14" lengthAdjust="spacing" textLength="165" x="441" y="220.9817">idEmpleado = "EMP001"</text><text fill="#000000" font-family="sans-serif" font-size="14" lengthAdjust="spacing" textLength="155" x="441" y="237.47">nombre = "Juan Perez"</text></g><g id="elem_puesto"><rect fill="#F1F1F1" height="77.9531" style="stroke:#181818;stroke-width:0.5;" width="261" x="593" y="321.4183"/><text fill="#000000" font-family="sans-serif" font-size="14" lengthAdjust="spacing" textLength="228" x="609.5" y="336.9534">puestoSoldadura : PuestoTrabajo</text><line style="stroke:#181818;stroke-width:0.5;" x1="594" x2="853" y1="341.9066" y2="341.9066"/><text fill="#000000" font-family="sans-serif" font-size="14" lengthAdjust="spacing" textLength="207" x="599" y="359.4417">codigoPuesto = "PT_SOLD_01"</text><text fill="#000000" font-family="sans-serif" font-size="14" lengthAdjust="spacing" textLength="249" x="599" y="375.93">ubicacionPlanta = "Nave A - L&#237;nea 2"</text><text fill="#000000" font-family="sans-serif" font-size="14" lengthAdjust="spacing" textLength="227" x="599" y="392.4183">hostnamePC = "MAFLOW_WS_05"</text></g><g id="elem_sapUser"><rect fill="#F1F1F1" height="61.4648" style="stroke:#181818;stroke-width:0.5;" width="274" x="788.5" y="476.8583"/><text fill="#000000" font-family="sans-serif" font-size="14" lengthAdjust="spacing" textLength="220" x="815.5" y="492.3934">usuarioProduccion : UsuarioSAP</text><line style="stroke:#181818;stroke-width:0.5;" x1="789.5" x2="1061.5" y1="497.3466" y2="497.3466"/><text fill="#000000" font-family="sans-serif" font-size="14" lengthAdjust="spacing" textLength="235" x="794.5" y="514.8817">username = "SAP_PROD_USER_01"</text><text fill="#000000" font-family="sans-serif" font-size="14" lengthAdjust="spacing" textLength="262" x="794.5" y="531.37">perfilPermisos = "Z_PROD_OPERATOR"</text></g><g id="elem_printer"><rect fill="#F1F1F1" height="77.9531" style="stroke:#181818;stroke-width:0.5;" width="215" x="430" y="631.8183"/><text fill="#000000" font-family="sans-serif" font-size="14" lengthAdjust="spacing" textLength="191" x="442" y="647.3534">impresoraZebra : Impresora</text><line style="stroke:#181818;stroke-width:0.5;" x1="431" x2="644" y1="652.3066" y2="652.3066"/><text fill="#000000" font-family="sans-serif" font-size="14" lengthAdjust="spacing" textLength="203" x="436" y="669.8417">idImpresora = "ZEBRA_L2_01"</text><text fill="#000000" font-family="sans-serif" font-size="14" lengthAdjust="spacing" textLength="168" x="436" y="686.33">modelo = "Zebra ZT411"</text><text fill="#000000" font-family="sans-serif" font-size="14" lengthAdjust="spacing" textLength="187" x="436" y="702.8183">colaImpresionSAP = "LOCL"</text></g><g id="elem_mes"><rect fill="#F1F1F1" height="61.4648" style="stroke:#181818;stroke-width:0.5;" width="234" x="71.5" y="182.9583"/><text fill="#000000" font-family="sans-serif" font-size="14" lengthAdjust="spacing" textLength="170" x="103.5" y="198.4934">mesMaflow : SistemaMES</text><line style="stroke:#181818;stroke-width:0.5;" x1="72.5" x2="304.5" y1="203.4466" y2="203.4466"/><text fill="#000000" font-family="sans-serif" font-size="14" lengthAdjust="spacing" textLength="108" x="77.5" y="220.9817">version = "v4.5"</text><text fill="#000000" font-family="sans-serif" font-size="14" lengthAdjust="spacing" textLength="222" x="77.5" y="237.47">dbConnection = "SQL_PROD_01"</text></g><g id="elem_orden"><rect fill="#F1F1F1" height="77.9531" style="stroke:#181818;stroke-width:0.5;" width="287" x="7" y="321.4183"/><text fill="#000000" font-family="sans-serif" font-size="14" lengthAdjust="spacing" textLength="200" x="50.5" y="336.9534">orden101 : OrdenProduccion</text><line style="stroke:#181818;stroke-width:0.5;" x1="8" x2="293" y1="341.9066" y2="341.9066"/><text fill="#000000" font-family="sans-serif" font-size="14" lengthAdjust="spacing" textLength="218" x="13" y="359.4417">numeroOrden = "ORD-100055"</text><text fill="#000000" font-family="sans-serif" font-size="14" lengthAdjust="spacing" textLength="275" x="13" y="375.93">referenciaMaterial = "REF-A/C-PIPE-05"</text><text fill="#000000" font-family="sans-serif" font-size="14" lengthAdjust="spacing" textLength="140" x="13" y="392.4183">cantidadTotal = 200</text></g><g id="elem_g1"><rect fill="#F1F1F1" height="94.4414" style="stroke:#181818;stroke-width:0.5;" width="249" x="26" y="460.3783"/><text fill="#000000" font-family="sans-serif" font-size="14" lengthAdjust="spacing" textLength="88" x="106.5" y="475.9134">galia1 : Galia</text><line style="stroke:#181818;stroke-width:0.5;" x1="27" x2="274" y1="480.8666" y2="480.8666"/><text fill="#000000" font-family="sans-serif" font-size="14" lengthAdjust="spacing" textLength="68" x="32" y="498.4017">id = 5001</text><text fill="#000000" font-family="sans-serif" font-size="14" lengthAdjust="spacing" textLength="158" x="32" y="514.89">estado = "Completada"</text><text fill="#000000" font-family="sans-serif" font-size="14" lengthAdjust="spacing" textLength="126" x="32" y="531.3783">cantidadCaja = 50</text><text fill="#000000" font-family="sans-serif" font-size="14" lengthAdjust="spacing" textLength="237" x="32" y="547.8666">numeroEtiqueta = "G-2024-0001"</text></g><g id="elem_g2"><rect fill="#F1F1F1" height="94.4414" style="stroke:#181818;stroke-width:0.5;" width="167" x="310" y="460.3783"/><text fill="#000000" font-family="sans-serif" font-size="14" lengthAdjust="spacing" textLength="88" x="349.5" y="475.9134">galia2 : Galia</text><line style="stroke:#181818;stroke-width:0.5;" x1="311" x2="476" y1="480.8666" y2="480.8666"/><text fill="#000000" font-family="sans-serif" font-size="14" lengthAdjust="spacing" textLength="68" x="316" y="498.4017">id = 5002</text><text fill="#000000" font-family="sans-serif" font-size="14" lengthAdjust="spacing" textLength="150" x="316" y="514.89">estado = "En Proceso"</text><text fill="#000000" font-family="sans-serif" font-size="14" lengthAdjust="spacing" textLength="126" x="316" y="531.3783">cantidadCaja = 50</text><text fill="#000000" font-family="sans-serif" font-size="14" lengthAdjust="spacing" textLength="155" x="316" y="547.8666">numeroEtiqueta = null</text></g><g id="elem_bot"><rect fill="#F1F1F1" height="61.4648" style="stroke:#181818;stroke-width:0.5;" width="250" x="257.5" y="44.4883"/><text fill="#000000" font-family="sans-serif" font-size="14" lengthAdjust="spacing" textLength="127" x="319" y="60.0234">robot1 : RobotRPA</text><line style="stroke:#181818;stroke-width:0.5;" x1="258.5" x2="506.5" y1="64.9766" y2="64.9766"/><text fill="#000000" font-family="sans-serif" font-size="14" lengthAdjust="spacing" textLength="238" x="263.5" y="82.5117">nombreRobot = "Robot_Galias_01"</text><text fill="#000000" font-family="sans-serif" font-size="14" lengthAdjust="spacing" textLength="106" x="263.5" y="99">estado = "Busy"</text></g><g id="elem_GMN23"><path d="M512,487.2883 L512,503.5983 L477.06,507.5983 L512,511.5983 L512,527.9094 A0,0 0 0 0 512,527.9094 L753,527.9094 A0,0 0 0 0 753,527.9094 L753,497.2883 L743,487.2883 L512,487.2883 A0,0 0 0 0 512,487.2883 " fill="#FEFFDD" style="stroke:#181818;stroke-width:0.5;"/><path d="M743,487.2883 L743,497.2883 L753,497.2883 L743,487.2883 " fill="#FEFFDD" style="stroke:#181818;stroke-width:0.5;"/><text fill="#000000" font-family="sans-serif" font-size="13" lengthAdjust="spacing" textLength="163" x="518" y="504.8566">Esta instancia est&#225; siendo</text><text fill="#000000" font-family="sans-serif" font-size="13" lengthAdjust="spacing" textLength="220" x="518" y="520.1672">trabajada actualmente por el Robot</text></g><!--link op to puesto--><g id="link_op_puesto"><path codeLine="56" d="M564.94,244.6683 C595.6,266.8583 637.61,297.2483 670.68,321.1783 " fill="none" id="op-puesto" style="stroke:#181818;stroke-width:1.0;"/></g><!--link puesto to sapUser--><g id="link_puesto_sapUser"><path codeLine="57" d="M776.84,399.7383 C810.27,423.7683 852.74,454.2883 883.72,476.5583 " fill="none" id="puesto-sapUser" style="stroke:#181818;stroke-width:1.0;"/></g><!--link sapUser to printer--><g id="link_sapUser_printer"><path codeLine="58" d="M852.98,538.7283 C789.92,564.9283 698.2,603.0283 629.9,631.4083 " fill="none" id="sapUser-printer" style="stroke:#181818;stroke-width:1.0;"/></g><!--link mes to orden--><g id="link_mes_orden"><path codeLine="59" d="M180.63,244.6683 C174.8,266.8583 168.343,291.4448 162.063,315.3748 " fill="none" id="mes-to-orden" style="stroke:#181818;stroke-width:1.0;"/><polygon fill="#181818" points="160.54,321.1783,166.6935,313.4884,161.8092,316.342,158.9555,311.4577,160.54,321.1783" style="stroke:#181818;stroke-width:1.0;"/></g><!--reverse link orden to g1--><g id="link_orden_g1"><path codeLine="60" d="M150.5,411.5483 C150.5,430.0283 150.5,440.3983 150.5,459.8883 " fill="none" id="orden-backto-g1" style="stroke:#181818;stroke-width:1.0;"/><polygon fill="#181818" points="150.5,399.5483,146.5,405.5483,150.5,411.5483,154.5,405.5483,150.5,399.5483" style="stroke:#181818;stroke-width:1.0;"/></g><!--reverse link orden to g2--><g id="link_orden_g2"><path codeLine="61" d="M224.9622,405.8917 C255.9022,424.3717 282.97,440.5483 315.53,460.0083 " fill="none" id="orden-backto-g2" style="stroke:#181818;stroke-width:1.0;"/><polygon fill="#181818" points="214.66,399.7383,217.76,406.249,224.9622,405.8917,221.8622,399.3809,214.66,399.7383" style="stroke:#181818;stroke-width:1.0;"/></g><!--link op to g1--><g id="link_op_g1"><path codeLine="62" d="M500.63,244.9183 C488.8,259.6683 473.69,277.2483 458.5,291.4183 C387.43,357.7183 299.8519,416.5807 234.8019,456.8407 " fill="none" id="op-to-g1" style="stroke:#181818;stroke-width:1.0;stroke-dasharray:7.0,7.0;"/><polygon fill="#181818" points="229.7,459.9983,239.4579,458.6631,233.9516,457.3669,235.2478,451.8606,229.7,459.9983" style="stroke:#181818;stroke-width:1.0;"/></g><!--link op to g2--><g id="link_op_g2"><path codeLine="63" d="M515.22,244.7883 C511.11,259.0283 505.88,276.2083 500.5,291.4183 C478.22,354.3483 474.62,371.3183 443.5,430.3783 C438.34,440.1783 435.4912,445.2626 429.3812,454.8226 " fill="none" id="op-to-g2" style="stroke:#181818;stroke-width:1.0;stroke-dasharray:7.0,7.0;"/><polygon fill="#181818" points="426.15,459.8783,434.3672,454.4489,428.8426,455.6652,427.6263,450.1407,426.15,459.8783" style="stroke:#181818;stroke-width:1.0;"/></g><!--link bot to mes--><g id="link_bot_mes"><path codeLine="64" d="M339.69,106.2983 C326.19,115.7883 311.22,126.3083 297.5,135.9583 C275.64,151.3383 256.2159,165.0039 236.1059,179.1639 " fill="none" id="bot-to-mes" style="stroke:#181818;stroke-width:1.0;stroke-dasharray:7.0,7.0;"/><polygon fill="#181818" points="231.2,182.6183,240.8617,180.7073,235.2882,179.7397,236.2559,174.1662,231.2,182.6183" style="stroke:#181818;stroke-width:1.0;"/><text fill="#000000" font-family="sans-serif" font-size="13" lengthAdjust="spacing" textLength="57" x="298.5" y="149.5266">lee datos</text></g><!--link bot to sapUser--><g id="link_bot_sapUser"><path codeLine="65" d="M507.7,106.4583 C619.83,140.0883 780.24,205.6183 871.5,321.4183 C907.77,367.4483 919.0984,431.1075 923.0084,470.5675 " fill="none" id="bot-to-sapUser" style="stroke:#181818;stroke-width:1.0;stroke-dasharray:7.0,7.0;"/><polygon fill="#181818" points="923.6,476.5383,926.6931,467.1877,923.107,471.5626,918.7321,467.9766,923.6,476.5383" style="stroke:#181818;stroke-width:1.0;"/><text fill="#000000" font-family="sans-serif" font-size="13" lengthAdjust="spacing" textLength="76" x="844.68" y="287.9866">conecta con</text></g><!--link bot to g2--><g id="link_bot_g2"><path codeLine="66" d="M383.26,106.1483 C385.15,180.0083 389.8972,365.4502 392.1572,454.1802 " fill="none" id="bot-to-g2" style="stroke:#181818;stroke-width:1.0;stroke-dasharray:7.0,7.0;"/><polygon fill="#181818" points="392.31,460.1783,396.0795,451.0794,392.1827,455.1799,388.0821,451.283,392.31,460.1783" style="stroke:#181818;stroke-width:1.0;"/><text fill="#000000" font-family="sans-serif" font-size="13" lengthAdjust="spacing" textLength="73" x="389" y="287.9866">procesando</text></g><!--link g1 to printer--><g id="link_g1_printer"><path codeLine="67" d="M262.44,555.2183 C320.48,579.3983 384.9614,606.2508 439.8314,629.1108 " fill="none" id="g1-to-printer" style="stroke:#181818;stroke-width:1.0;stroke-dasharray:7.0,7.0;"/><polygon fill="#181818" points="445.37,631.4183,438.6005,624.2647,440.7545,629.4954,435.5239,631.6494,445.37,631.4183" style="stroke:#181818;stroke-width:1.0;"/><text fill="#000000" font-family="sans-serif" font-size="13" lengthAdjust="spacing" textLength="75" x="368.17" y="598.3866">impresa por</text></g><!--SRC=[bLH1Rjim4Bph5OIF1PJAGdm9q0AEemGfx4gL70J8nLXBj4D38bMIIj4KVKmVq5VaOzqb9TdEhJbOAt8qCzpCqWfRSvQOaalGGbsnjEMQAlQb0ybgaA_0QcKvgxYfECiwRgnYXQehg3eDGQ2s1rvQDZaG_lZzX85XgcM_0eP_eagQjkPGAVQ9JP9L5aNJYTkHgjbgJgjECEEQlqw2tqVUrYcEWYZXFQmrRE7WTJocrofL9VQgDugysNfJfCkRpQ3ORKK9fL0omzDP8CXNUE5ipaAsVFihER3O8v-LiH8QdYq8j9hVBjF7pMEnYMPd3ZlJqOaphQgk96Bq-E3NYddc31fe7mpNlSCEI-8bLaHiiZozsJmKIJvwn2RkH8tDQ8HHXd1F7fLcIJvVf_cP0T6qcXkbuOblNOVkXmNV7Isa7SL5DUuwtkGwds-MyIZTg8hNhd6UxMbzEUstIbM3_nWFYSO9j4mNopCp3JShsDNg1_eeXB6yWLLIE2EurPjuuPeuYE3bycBcwQljGac99FrEyMtf3qtMJXIKhhYSHbDA6vN7nllGqLgl8xk6Q-LGn9ZcD-4qYg9PhwZv3lCcIm4hm0u9g0cL9xVX_ECYpEwp98nwQ8bP4HZ1jR8E5KVHgQSzr0B8qHqLpiT-EdOSyJDCl7l3MFPZi50q4_W6vn8BE83xukG8YHNVE-xJUXV6KNmPHj6xlZWFyRc7-9s7-9s714TEgnBZy5yUP5VNfz9QRPMbu-TKvDdSgMCv_1_SbBjDrs4gDiwc6ODtD7NTcP_kP05U864uZ7VGFt5bcATWA0ZLnpoWc8NXvpu8WNzyGCH-UleI4_l5nMUtt5TnG0wf998hLdEy-C0gCwuFWbSu3PHLeEUukwVsjwwX82iLO0PeUR1snVoe0ckL3W99zweM-sVBr8x46Tx4o2Wa_b8ggITlVvWHdCWOi-xEmy0mA6q7TSEHbhWOhtth0qGouWt-0G00]--></g></svg>