<?xml version="1.0" encoding="us-ascii" standalone="no"?><svg xmlns="http://www.w3.org/2000/svg" xmlns:xlink="http://www.w3.org/1999/xlink" contentStyleType="text/css" height="516px" preserveAspectRatio="none" style="width:732px;height:516px;background:#FFFFFF;" version="1.1" viewBox="0 0 732 516" width="732px" zoomAndPan="magnify"><defs/><g><!--class Operario--><g id="elem_Operario"><rect codeLine="5" fill="#F1F1F1" height="26.4883" id="Operario" rx="2.5" ry="2.5" style="stroke:#181818;stroke-width:0.5;" width="67" x="221.61" y="113.551"/><text fill="#000000" font-family="sans-serif" font-size="14" lengthAdjust="spacing" textLength="61" x="224.61" y="132.0862">Operario</text></g><!--class PuestoTrabajo--><g id="elem_PuestoTrabajo"><rect codeLine="6" fill="#F1F1F1" height="26.4883" id="PuestoTrabajo" rx="2.5" ry="2.5" style="stroke:#181818;stroke-width:0.5;" width="105" x="109.61" y="217.041"/><text fill="#000000" font-family="sans-serif" font-size="14" lengthAdjust="spacing" textLength="99" x="112.61" y="235.5762">PuestoTrabajo</text></g><!--class Impresora--><g id="elem_Impresora"><rect codeLine="7" fill="#F1F1F1" height="26.4883" id="Impresora" rx="2.5" ry="2.5" style="stroke:#181818;stroke-width:0.5;" width="76" x="260.11" y="484.081"/><text fill="#000000" font-family="sans-serif" font-size="14" lengthAdjust="spacing" textLength="70" x="263.11" y="502.6162">Impresora</text></g><!--class SistemaMES--><g id="elem_SistemaMES"><rect codeLine="8" fill="#F1F1F1" height="26.4883" id="SistemaMES" rx="2.5" ry="2.5" style="stroke:#181818;stroke-width:0.5;" width="87" x="560.61" y="113.551"/><text fill="#000000" font-family="sans-serif" font-size="14" lengthAdjust="spacing" textLength="81" x="563.61" y="132.0862">SistemaMES</text></g><!--class RobotRPA--><g id="elem_RobotRPA"><rect codeLine="9" fill="#F1F1F1" height="26.4883" id="RobotRPA" rx="2.5" ry="2.5" style="stroke:#181818;stroke-width:0.5;" width="74" x="443.11" y="10.061"/><text fill="#000000" font-family="sans-serif" font-size="14" lengthAdjust="spacing" textLength="68" x="446.11" y="28.5962">RobotRPA</text></g><!--class UsuarioSAP--><g id="elem_UsuarioSAP"><rect codeLine="10" fill="#F1F1F1" height="26.4883" id="UsuarioSAP" rx="2.5" ry="2.5" style="stroke:#181818;stroke-width:0.5;" width="85" x="75.61" y="350.561"/><text fill="#000000" font-family="sans-serif" font-size="14" lengthAdjust="spacing" textLength="79" x="78.61" y="369.0962">UsuarioSAP</text></g><!--class OrdenProduccion--><g id="elem_OrdenProduccion"><rect codeLine="11" fill="#F1F1F1" height="26.4883" id="OrdenProduccion" rx="2.5" ry="2.5" style="stroke:#181818;stroke-width:0.5;" width="126" x="552.11" y="217.041"/><text fill="#000000" font-family="sans-serif" font-size="14" lengthAdjust="spacing" textLength="120" x="555.11" y="235.5762">OrdenProduccion</text></g><!--class Galia--><g id="elem_Galia"><rect codeLine="12" fill="#F1F1F1" height="26.4883" id="Galia" rx="2.5" ry="2.5" style="stroke:#181818;stroke-width:0.5;" width="40" x="460.11" y="350.561"/><text fill="#000000" font-family="sans-serif" font-size="14" lengthAdjust="spacing" textLength="34" x="463.11" y="369.0962">Galia</text></g><g id="elem_GMN20"><path d="M195.61,320.531 L195.61,359.811 L160.86,363.811 L195.61,367.811 L195.61,407.0838 A0,0 0 0 0 195.61,407.0838 L424.61,407.0838 A0,0 0 0 0 424.61,407.0838 L424.61,330.531 L414.61,320.531 L195.61,320.531 A0,0 0 0 0 195.61,320.531 " fill="#FEFFDD" style="stroke:#181818;stroke-width:0.5;"/><path d="M414.61,320.531 L414.61,330.531 L424.61,330.531 L414.61,320.531 " fill="#FEFFDD" style="stroke:#181818;stroke-width:0.5;"/><text fill="#000000" font-family="sans-serif" font-size="13" lengthAdjust="spacing" textLength="113" x="201.61" y="338.0994">Regla de Negocio:</text><text fill="#000000" font-family="sans-serif" font-size="13" lengthAdjust="spacing" textLength="205" x="201.61" y="353.4099">Cada Usuario SAP tiene asignada</text><text fill="#000000" font-family="sans-serif" font-size="13" lengthAdjust="spacing" textLength="208" x="201.61" y="368.7205">una &#250;nica impresora por defecto.</text><text fill="#000000" font-family="sans-serif" font-size="13" lengthAdjust="spacing" textLength="207" x="201.61" y="384.031">Varios Puestos pueden compartir</text><text fill="#000000" font-family="sans-serif" font-size="13" lengthAdjust="spacing" textLength="141" x="201.61" y="399.3416">el mismo Usuario SAP.</text></g><!--link Operario to PuestoTrabajo--><g id="link_Operario_PuestoTrabajo"><path codeLine="14" d="M242.75,140.211 C234.52,148.541 223.54,159.831 214.11,170.041 C199.45,185.931 183.08,204.771 172.69,216.871 " fill="none" id="Operario-PuestoTrabajo" style="stroke:#181818;stroke-width:1.0;"/><polygon fill="#000000" points="215.7369,182.3872,224.0083,177.693,219.6695,173.7277,215.7369,182.3872" style="stroke:#000000;stroke-width:1.0;"/><text fill="#000000" font-family="sans-serif" font-size="13" lengthAdjust="spacing" textLength="38" x="228.11" y="183.6094">ocupa</text><text fill="#000000" font-family="sans-serif" font-size="13" lengthAdjust="spacing" textLength="8" x="228.7173" y="160.5494">1</text><text fill="#000000" font-family="sans-serif" font-size="13" lengthAdjust="spacing" textLength="8" x="167.2809" y="206.2656">1</text></g><!--link PuestoTrabajo to UsuarioSAP--><g id="link_PuestoTrabajo_UsuarioSAP"><path codeLine="15" d="M157.9,243.901 C149.46,269.101 130.62,325.411 122.26,350.421 " fill="none" id="PuestoTrabajo-UsuarioSAP" style="stroke:#181818;stroke-width:1.0;"/><polygon fill="#000000" points="151.2935,286.9279,156.9506,279.2828,151.3764,277.4177,151.2935,286.9279" style="stroke:#000000;stroke-width:1.0;"/><text fill="#000000" font-family="sans-serif" font-size="13" lengthAdjust="spacing" textLength="103" x="161.88" y="287.0994">configurado con</text><text fill="#000000" font-family="sans-serif" font-size="13" lengthAdjust="spacing" textLength="6" x="149.3314" y="264.0472">*</text><text fill="#000000" font-family="sans-serif" font-size="13" lengthAdjust="spacing" textLength="8" x="114.3191" y="339.8274">1</text></g><!--link UsuarioSAP to Impresora--><g id="link_UsuarioSAP_Impresora"><path codeLine="16" d="M126.73,377.331 C140.24,396.191 168.08,431.991 199.11,454.081 C217.53,467.191 240.66,477.351 259.93,484.411 " fill="none" id="UsuarioSAP-Impresora" style="stroke:#181818;stroke-width:1.0;"/><polygon fill="#000000" points="208.0069,448.8691,202.7987,440.9113,199.116,445.4924,208.0069,448.8691" style="stroke:#000000;stroke-width:1.0;"/><text fill="#000000" font-family="sans-serif" font-size="13" lengthAdjust="spacing" textLength="194" x="213.11" y="450.6494">imprime en (configuraci&#243;n fija)</text><text fill="#000000" font-family="sans-serif" font-size="13" lengthAdjust="spacing" textLength="8" x="120.4336" y="397.7099">1</text><text fill="#000000" font-family="sans-serif" font-size="13" lengthAdjust="spacing" textLength="8" x="244.1531" y="478.2442">1</text></g><!--link SistemaMES to OrdenProduccion--><g id="link_SistemaMES_OrdenProduccion"><path codeLine="17" d="M605.46,140.241 C607.57,159.721 610.9958,191.2357 613.1058,210.7757 " fill="none" id="SistemaMES-to-OrdenProduccion" style="stroke:#181818;stroke-width:1.0;"/><polygon fill="#181818" points="613.75,216.741,616.7606,207.3636,613.2132,211.7699,608.8069,208.2225,613.75,216.741" style="stroke:#181818;stroke-width:1.0;"/><polygon fill="#000000" points="615.8088,183.6672,617.7559,174.3581,611.9123,174.9915,615.8088,183.6672" style="stroke:#000000;stroke-width:1.0;"/><text fill="#000000" font-family="sans-serif" font-size="13" lengthAdjust="spacing" textLength="100" x="624.27" y="183.6094">provee datos de</text><text fill="#000000" font-family="sans-serif" font-size="13" lengthAdjust="spacing" textLength="8" x="596.4828" y="160.5904">1</text><text fill="#000000" font-family="sans-serif" font-size="13" lengthAdjust="spacing" textLength="6" x="606.0878" y="206.3455">*</text></g><!--link RobotRPA to Galia--><g id="link_RobotRPA_Galia"><path codeLine="18" d="M480.11,36.761 C480.11,89.831 480.11,290.951 480.11,344.241 " fill="none" id="RobotRPA-to-Galia" style="stroke:#181818;stroke-width:1.0;stroke-dasharray:7.0,7.0;"/><polygon fill="#181818" points="480.11,350.241,484.11,341.241,480.11,345.241,476.11,341.241,480.11,350.241" style="stroke:#181818;stroke-width:1.0;"/><polygon fill="#000000" points="485.11,183.6963,488.0489,174.6512,482.1711,174.6512,485.11,183.6963" style="stroke:#000000;stroke-width:1.0;"/><text fill="#000000" font-family="sans-serif" font-size="13" lengthAdjust="spacing" textLength="98" x="494.11" y="183.6094">procesa/genera</text><text fill="#000000" font-family="sans-serif" font-size="13" lengthAdjust="spacing" textLength="8" x="470.635" y="57.1141">1</text><text fill="#000000" font-family="sans-serif" font-size="13" lengthAdjust="spacing" textLength="6" x="472.9662" y="339.8379">*</text></g><!--link RobotRPA to UsuarioSAP--><g id="link_RobotRPA_UsuarioSAP"><path codeLine="19" d="M442.81,23.551 C355.82,24.081 139.93,39.141 48.11,170.041 C6,230.091 72.9468,313.8879 102.2868,346.0579 " fill="none" id="RobotRPA-to-UsuarioSAP" style="stroke:#181818;stroke-width:1.0;stroke-dasharray:7.0,7.0;"/><polygon fill="#181818" points="106.33,350.491,103.2207,341.1459,102.9607,346.7967,97.3098,346.5368,106.33,350.491" style="stroke:#181818;stroke-width:1.0;"/><polygon fill="#000000" points="49.4797,182.1345,58.0679,178.0486,54.026,173.7809,49.4797,182.1345" style="stroke:#000000;stroke-width:1.0;"/><text fill="#000000" font-family="sans-serif" font-size="13" lengthAdjust="spacing" textLength="128" x="62.11" y="183.6094">utiliza para conectar</text><text fill="#000000" font-family="sans-serif" font-size="13" lengthAdjust="spacing" textLength="8" x="427.1953" y="19.8105">1</text><text fill="#000000" font-family="sans-serif" font-size="13" lengthAdjust="spacing" textLength="8" x="92.1166" y="339.925">1</text></g><!--link RobotRPA to SistemaMES--><g id="link_RobotRPA_SistemaMES"><path codeLine="20" d="M495.57,36.961 C519.46,56.511 560.4366,90.0512 584.2166,109.5112 " fill="none" id="RobotRPA-to-SistemaMES" style="stroke:#181818;stroke-width:1.0;stroke-dasharray:7.0,7.0;"/><polygon fill="#181818" points="588.86,113.311,584.4281,104.5157,584.9905,110.1445,579.3617,110.7069,588.86,113.311" style="stroke:#181818;stroke-width:1.0;"/><polygon fill="#000000" points="558.4093,78.3731,553.271,70.37,549.5483,74.9187,558.4093,78.3731" style="stroke:#000000;stroke-width:1.0;"/><text fill="#000000" font-family="sans-serif" font-size="13" lengthAdjust="spacing" textLength="76" x="563.54" y="80.1194">lee datos de</text><text fill="#000000" font-family="sans-serif" font-size="13" lengthAdjust="spacing" textLength="8" x="491.6526" y="57.1215">1</text><text fill="#000000" font-family="sans-serif" font-size="13" lengthAdjust="spacing" textLength="8" x="573.5209" y="102.9384">1</text></g><!--reverse link OrdenProduccion to Galia--><g id="link_OrdenProduccion_Galia"><path codeLine="21" d="M593.5741,252.2743 C567.7041,277.4743 518.5,325.411 492.82,350.421 " fill="none" id="OrdenProduccion-backto-Galia" style="stroke:#181818;stroke-width:1.0;"/><polygon fill="#181818" points="602.17,243.901,595.081,245.2224,593.5741,252.2743,600.6631,250.9529,602.17,243.901" style="stroke:#181818;stroke-width:1.0;"/><polygon fill="#000000" points="572.8684,285.6752,581.3983,281.4689,577.2968,277.2585,572.8684,285.6752" style="stroke:#000000;stroke-width:1.0;"/><text fill="#000000" font-family="sans-serif" font-size="13" lengthAdjust="spacing" textLength="54" x="585.45" y="287.0994">contiene</text><text fill="#000000" font-family="sans-serif" font-size="13" lengthAdjust="spacing" textLength="8" x="588.1351" y="264.0472">1</text><text fill="#000000" font-family="sans-serif" font-size="13" lengthAdjust="spacing" textLength="6" x="490.6433" y="339.8274">*</text></g><!--link Operario to Galia--><g id="link_Operario_Galia"><path codeLine="22" d="M259.69,140.221 C268.54,162.901 289.8,211.621 320.11,243.531 C364.28,290.021 393.11,279.181 442.11,320.531 C452.67,329.441 459.2591,336.6003 466.4891,345.4703 " fill="none" id="Operario-to-Galia" style="stroke:#181818;stroke-width:1.0;stroke-dasharray:7.0,7.0;"/><polygon fill="#181818" points="470.28,350.121,467.6942,340.6177,467.121,346.2454,461.4932,345.6722,470.28,350.121" style="stroke:#181818;stroke-width:1.0;"/><polygon fill="#000000" points="328.6588,233.9585,324.3093,225.5008,320.1687,229.6727,328.6588,233.9585" style="stroke:#000000;stroke-width:1.0;"/><text fill="#000000" font-family="sans-serif" font-size="13" lengthAdjust="spacing" textLength="119" x="334.11" y="235.3494">solicita generaci&#243;n</text><text fill="#000000" font-family="sans-serif" font-size="13" lengthAdjust="spacing" textLength="8" x="251.9039" y="160.5631">1</text><text fill="#000000" font-family="sans-serif" font-size="13" lengthAdjust="spacing" textLength="6" x="459.5489" y="339.935">*</text></g><!--link Galia to Impresora--><g id="link_Galia_Impresora"><path codeLine="23" d="M473.67,377.271 C463.2,396.361 440.77,432.861 412.11,454.081 C389.64,470.721 365.6736,479.8642 342.2036,486.3442 " fill="none" id="Galia-to-Impresora" style="stroke:#181818;stroke-width:1.0;stroke-dasharray:7.0,7.0;"/><polygon fill="#181818" points="336.42,487.941,346.16,489.4015,341.2397,486.6103,344.0309,481.69,336.42,487.941" style="stroke:#181818;stroke-width:1.0;"/><polygon fill="#000000" points="431.512,448.9289,440.3497,445.4153,436.5966,440.8916,431.512,448.9289" style="stroke:#000000;stroke-width:1.0;"/><text fill="#000000" font-family="sans-serif" font-size="13" lengthAdjust="spacing" textLength="75" x="444.36" y="450.6494">impresa por</text><text fill="#000000" font-family="sans-serif" font-size="13" lengthAdjust="spacing" textLength="6" x="464.189" y="397.6278">*</text><text fill="#000000" font-family="sans-serif" font-size="13" lengthAdjust="spacing" textLength="8" x="344.2209" y="482.425">1</text></g><!--SRC=[TLB1JiCm3BtdAwoT08aXhZjCGWWX3i2q0NSlzJfFJLmbAHBy5ZUk-p6SjHrT1QSczdlsUw_PSa50hauVuCYjAKIppINBmLPaZAqmHdYkAM1WwQwBXcAIbu1ht0bqnGTN1ueIiBklE2Po-7YtwWfBMKjQBcwwwsjiyiZLpQ9V4WhoYo15OosBxwhtM34Qqok0oVK4BYyFdrCPCn3Rr0XpSrgVN1m9loiLRSLlk6m25fBFoXkq1rkElfJ3UcQdWNauE_8jxxyyR7Y7vphartOtP7vGC3Adi-eWxqHGO988clZSz04TYDDfIppuR-6M8bwLv3M9Fz5ZXqtYYZyHQbI2oYMRCFp77EYUGNKgR2m-uozoF0DzEZ-nQilmuRyQ-uXIiUM4q1ffmvkRjfs1lQ1nxceUQidwZPT44BZS9f3Dy241BAciCAj-eb9Kx4nhjrXWZu8SJIiK8vTUMufeFCB-sxF5RbLUcvSLjD7KPAgOjqplttw4kY4DHMqxZJTnK0HLu3Ww6UwQ6l85PC7c1m00]--></g></svg>