<?xml version="1.0" encoding="us-ascii" standalone="no"?><svg xmlns="http://www.w3.org/2000/svg" xmlns:xlink="http://www.w3.org/1999/xlink" contentStyleType="text/css" height="551px" preserveAspectRatio="none" style="width:347px;height:551px;background:#FFFFFF;" version="1.1" viewBox="0 0 347 551" width="347px" zoomAndPan="magnify"><defs/><g><path d="M19.5,7 L321.14,7 A12.5,12.5 0 0 1 333.64,19.5 L333.64,33.4883 L7,33.4883 L7,19.5 A12.5,12.5 0 0 1 19.5,7 " fill="#FFFFFF" style="stroke:#FFFFFF;stroke-width:1.0;"/><rect fill="none" height="538.5122" rx="12.5" ry="12.5" style="stroke:#000000;stroke-width:0.5;" width="326.64" x="7" y="7"/><line style="stroke:#000000;stroke-width:0.5;" x1="7" x2="333.64" y1="33.4883" y2="33.4883"/><text fill="#000000" font-family="sans-serif" font-size="14" lengthAdjust="spacing" textLength="137" x="101.82" y="25.5352">Galia (Ciclo de Vida)</text><ellipse cx="149" cy="54.4883" fill="#222222" rx="10" ry="10" style="stroke:#222222;stroke-width:1.0;"/><g id="GaliaContainer.Pendiente"><rect fill="#FFFFFF" height="64.7539" rx="12.5" ry="12.5" style="stroke:#000000;stroke-width:0.5;" width="123" x="87.5" y="117.4883"/><line style="stroke:#000000;stroke-width:0.5;" x1="87.5" x2="210.5" y1="143.9766" y2="143.9766"/><text fill="#000000" font-family="sans-serif" font-size="14" lengthAdjust="spacing" textLength="68" x="115" y="136.0234">Pendiente</text><text fill="#000000" font-family="sans-serif" font-size="12" lengthAdjust="spacing" textLength="103" x="92.5" y="160.5781">Datos disponibles</text><text fill="#000000" font-family="sans-serif" font-size="12" lengthAdjust="spacing" textLength="101" x="92.5" y="174.7109">en base de datos</text></g><g id="GaliaContainer.EnCola"><rect fill="#FFFFFF" height="64.7539" rx="12.5" ry="12.5" style="stroke:#000000;stroke-width:0.5;" width="155" x="71.5" y="235.2483"/><line style="stroke:#000000;stroke-width:0.5;" x1="71.5" x2="226.5" y1="261.7366" y2="261.7366"/><text fill="#000000" font-family="sans-serif" font-size="14" lengthAdjust="spacing" textLength="52" x="123" y="253.7834">En Cola</text><text fill="#000000" font-family="sans-serif" font-size="12" lengthAdjust="spacing" textLength="98" x="76.5" y="278.3381">Seleccionada por</text><text fill="#000000" font-family="sans-serif" font-size="12" lengthAdjust="spacing" textLength="135" x="76.5" y="292.4709">Operario para imprimir</text></g><g id="GaliaContainer.EnProceso"><rect fill="#FFFFFF" height="64.7539" rx="12.5" ry="12.5" style="stroke:#000000;stroke-width:0.5;" width="137" x="80.5" y="352.9983"/><line style="stroke:#000000;stroke-width:0.5;" x1="80.5" x2="217.5" y1="379.4866" y2="379.4866"/><text fill="#000000" font-family="sans-serif" font-size="14" lengthAdjust="spacing" textLength="75" x="111.5" y="371.5334">En Proceso</text><text fill="#000000" font-family="sans-serif" font-size="12" lengthAdjust="spacing" textLength="117" x="85.5" y="396.0881">Robot interactuando</text><text fill="#000000" font-family="sans-serif" font-size="12" lengthAdjust="spacing" textLength="45" x="85.5" y="410.2209">con SAP</text></g><g id="GaliaContainer.Completada"><rect fill="#FFFFFF" height="64.7539" rx="12.5" ry="12.5" style="stroke:#000000;stroke-width:0.5;" width="120" x="19" y="470.7583"/><line style="stroke:#000000;stroke-width:0.5;" x1="19" x2="139" y1="497.2466" y2="497.2466"/><text fill="#000000" font-family="sans-serif" font-size="14" lengthAdjust="spacing" textLength="83" x="37.5" y="489.2934">Completada</text><text fill="#000000" font-family="sans-serif" font-size="12" lengthAdjust="spacing" textLength="100" x="24" y="513.8481">Generada en SAP</text><text fill="#000000" font-family="sans-serif" font-size="12" lengthAdjust="spacing" textLength="58" x="24" y="527.9809">e Impresa</text></g><g id="GaliaContainer.Error"><rect fill="#FFFFFF" height="64.7539" rx="12.5" ry="12.5" style="stroke:#000000;stroke-width:0.5;" width="126" x="157" y="470.7583"/><line style="stroke:#000000;stroke-width:0.5;" x1="157" x2="283" y1="497.2466" y2="497.2466"/><text fill="#000000" font-family="sans-serif" font-size="14" lengthAdjust="spacing" textLength="35" x="202.5" y="489.2934">Error</text><text fill="#000000" font-family="sans-serif" font-size="12" lengthAdjust="spacing" textLength="106" x="162" y="513.8481">Fallo de validaci&#243;n</text><text fill="#000000" font-family="sans-serif" font-size="12" lengthAdjust="spacing" textLength="84" x="162" y="527.9809">o error t&#233;cnico</text></g><!--link *start*GaliaContainer to Pendiente--><g id="link_*start*GaliaContainer_Pendiente"><path d="M149,64.7883 C149,76.9683 149,92.9383 149,111.3683 " fill="none" id="*start*GaliaContainer-to-Pendiente" style="stroke:#000000;stroke-width:1.0;"/><polygon fill="#000000" points="149,117.3683,153,108.3683,149,112.3683,145,108.3683,149,117.3683" style="stroke:#000000;stroke-width:1.0;"/><text fill="#000000" font-family="sans-serif" font-size="13" lengthAdjust="spacing" textLength="100" x="150" y="96.0566">Registro en MES</text></g><!--link Pendiente to EnCola--><g id="link_Pendiente_EnCola"><path d="M91.49,182.7183 C86.11,187.8883 81.41,193.7283 78,200.2483 C71.2,213.2583 72.787,221.045 83.707,231.005 " fill="none" id="Pendiente-to-EnCola" style="stroke:#000000;stroke-width:1.0;"/><polygon fill="#000000" points="88.14,235.0483,84.186,226.028,84.4458,231.6789,78.7949,231.9387,88.14,235.0483" style="stroke:#000000;stroke-width:1.0;"/><text fill="#000000" font-family="sans-serif" font-size="13" lengthAdjust="spacing" textLength="119" x="79" y="213.8166">Operario lanza lote</text></g><!--link EnCola to Pendiente--><g id="link_EnCola_Pendiente"><path d="M190.57,234.8783 C199.1,224.5083 204.12,212.4983 199,200.2483 C196.37,193.9383 196.3048,192.6694 191.8648,187.2794 " fill="none" id="EnCola-to-Pendiente" style="stroke:#000000;stroke-width:1.0;"/><polygon fill="#000000" points="188.05,182.6483,190.6849,192.1381,191.229,186.5075,196.8597,187.0517,188.05,182.6483" style="stroke:#000000;stroke-width:1.0;"/><text fill="#000000" font-family="sans-serif" font-size="13" lengthAdjust="spacing" textLength="54" x="202.06" y="213.8166">Cancelar</text></g><!--link EnCola to EnProceso--><g id="link_EnCola_EnProceso"><path d="M149,300.2583 C149,316.5883 149,330.4583 149,346.7883 " fill="none" id="EnCola-to-EnProceso" style="stroke:#000000;stroke-width:1.0;"/><polygon fill="#000000" points="149,352.7883,153,343.7883,149,347.7883,145,343.7883,149,352.7883" style="stroke:#000000;stroke-width:1.0;"/><text fill="#000000" font-family="sans-serif" font-size="13" lengthAdjust="spacing" textLength="105" x="150" y="331.5666">Robot toma &#237;tem</text></g><!--link EnProceso to Completada--><g id="link_EnProceso_Completada"><path d="M129.87,418.0083 C120,434.3383 111.0859,449.0747 101.2059,465.4047 " fill="none" id="EnProceso-to-Completada" style="stroke:#000000;stroke-width:1.0;"/><polygon fill="#000000" points="98.1,470.5383,106.1812,464.9086,100.6883,466.2603,99.3365,460.7674,98.1,470.5383" style="stroke:#000000;stroke-width:1.0;"/><text fill="#000000" font-family="sans-serif" font-size="13" lengthAdjust="spacing" textLength="59" x="119.19" y="449.3266">&#201;xito SAP</text></g><!--link EnProceso to Error--><g id="link_EnProceso_Error"><path d="M171.58,418.2283 C175.48,423.9983 179.43,430.0083 183,435.7583 C189.89,446.8483 194.0947,454.0331 200.2047,465.1231 " fill="none" id="EnProceso-to-Error" style="stroke:#000000;stroke-width:1.0;"/><polygon fill="#000000" points="203.1,470.3783,202.2605,460.5653,200.6872,465.999,195.2535,464.4257,203.1,470.3783" style="stroke:#000000;stroke-width:1.0;"/><text fill="#000000" font-family="sans-serif" font-size="13" lengthAdjust="spacing" textLength="130" x="193.64" y="449.3266">Excepci&#243;n capturada</text></g><!--SRC=[PP9FRbGn3CRtxnHMLu3K2x10QXz3rGLYn4YmO5Xu4gkrccT7JWOAg0VWA2nOSOIv64xcJplJNPxp-HT_dzyjHmAQSlq1aKempfLLXdB7aj5mWbAn4lmQ02untDsOhYMEcjJWyorNQdMrIBQjNIONUUt2JBy_BJqCmvPqTeM94LwC79Bwc_298xuy0opGRqQLYYna_Ks0Bw- -mldv6vYJH2PnmcluI3TSgYcGmFlPOkZ27VwWwyYdNM-nQe789QlmAb5PYlUli50R8xRR8z9Cm1rWvyoa7Hsoe4GXU4GO4RBQKZvaCZHMQ7a1JzbuOZibpKq35Tt1Tb_DYgwq0lk4Xg6kKQ8k9QZ0uc9-n1XroecgFziPZvyEkIBFgnsfzxalkFOvgE3n6BuKsqxGJjxu3jDs2Tyy-eY1D_zaAPvhlw-RFq4uw1Ro66LRno6GW_s4yXCXQVydO2yuNTs84YYXdMgUPr9rGjZyhJJjj7j1an_Pt_o-vweziUVAlTNPVQ3S3KB0NDSjh-7XFm00]--></g></svg>