<?xml version="1.0" encoding="us-ascii" standalone="no"?><svg xmlns="http://www.w3.org/2000/svg" xmlns:xlink="http://www.w3.org/1999/xlink" contentStyleType="text/css" height="949px" preserveAspectRatio="none" style="width:328px;height:949px;background:#FFFFFF;" version="1.1" viewBox="0 0 328 949" width="328px" zoomAndPan="magnify"><defs/><g><path d="M19.5,7 L302.05,7 A12.5,12.5 0 0 1 314.55,19.5 L314.55,33.4883 L7,33.4883 L7,19.5 A12.5,12.5 0 0 1 19.5,7 " fill="#FFFFFF" style="stroke:#FFFFFF;stroke-width:1.0;"/><rect fill="none" height="936.4866" rx="12.5" ry="12.5" style="stroke:#000000;stroke-width:0.5;" width="307.55" x="7" y="7"/><line style="stroke:#000000;stroke-width:0.5;" x1="7" x2="314.55" y1="33.4883" y2="33.4883"/><text fill="#000000" font-family="sans-serif" font-size="14" lengthAdjust="spacing" textLength="135" x="93.275" y="25.5352">Robot RPA (Agente)</text><ellipse cx="137.55" cy="77.8683" fill="#222222" rx="10" ry="10" style="stroke:#222222;stroke-width:1.0;"/><rect fill="#FFFFFF" height="40" rx="12.5" ry="12.5" style="stroke:#000000;stroke-width:0.5;" width="106" x="84.55" y="163.2483"/><text fill="#000000" font-family="sans-serif" font-size="14" lengthAdjust="spacing" textLength="96" x="89.55" y="188.5393">Desconectado</text><g id="RobotContainer.Idle"><rect fill="#FFFFFF" height="64.7539" rx="12.5" ry="12.5" style="stroke:#000000;stroke-width:0.5;" width="132" x="71.55" y="256.2483"/><line style="stroke:#000000;stroke-width:0.5;" x1="71.55" x2="203.55" y1="282.7366" y2="282.7366"/><text fill="#000000" font-family="sans-serif" font-size="14" lengthAdjust="spacing" textLength="112" x="81.55" y="274.7834">Disponible (Idle)</text><text fill="#000000" font-family="sans-serif" font-size="12" lengthAdjust="spacing" textLength="102" x="76.55" y="299.3381">Esperando tareas</text><text fill="#000000" font-family="sans-serif" font-size="12" lengthAdjust="spacing" textLength="101" x="76.55" y="313.4709">en base de datos</text></g><path d="M31.5,373.9983 L243.6,373.9983 A12.5,12.5 0 0 1 256.1,386.4983 L256.1,400.4866 L19,400.4866 L19,386.4983 A12.5,12.5 0 0 1 31.5,373.9983 " fill="#FFFFFF" style="stroke:#FFFFFF;stroke-width:1.0;"/><rect fill="none" height="559.4883" rx="12.5" ry="12.5" style="stroke:#000000;stroke-width:0.5;" width="237.1" x="19" y="373.9983"/><line style="stroke:#000000;stroke-width:0.5;" x1="19" x2="256.1" y1="400.4866" y2="400.4866"/><text fill="#000000" font-family="sans-serif" font-size="14" lengthAdjust="spacing" textLength="113" x="81.05" y="392.5334">Procesando Lote</text><ellipse cx="120" cy="421.4866" fill="#222222" rx="10" ry="10" style="stroke:#222222;stroke-width:1.0;"/><rect fill="#FFFFFF" height="40" rx="12.5" ry="12.5" style="stroke:#000000;stroke-width:0.5;" width="113" x="63.5" y="468.4866"/><text fill="#000000" font-family="sans-serif" font-size="14" lengthAdjust="spacing" textLength="103" x="68.5" y="493.7776">ValidarEntorno</text><rect fill="#FFFFFF" height="40" rx="12.5" ry="12.5" style="stroke:#000000;stroke-width:0.5;" width="74" x="47" y="561.4866"/><text fill="#000000" font-family="sans-serif" font-size="14" lengthAdjust="spacing" textLength="64" x="52" y="586.7776">LoginSAP</text><rect fill="#FFFFFF" height="40" rx="12.5" ry="12.5" style="stroke:#000000;stroke-width:0.5;" width="66" x="92" y="638.4866"/><text fill="#000000" font-family="sans-serif" font-size="14" lengthAdjust="spacing" textLength="56" x="97" y="663.7776">Navegar</text><rect fill="#FFFFFF" height="40" rx="12.5" ry="12.5" style="stroke:#000000;stroke-width:0.5;" width="117" x="66.5" y="715.4866"/><text fill="#000000" font-family="sans-serif" font-size="14" lengthAdjust="spacing" textLength="107" x="71.5" y="740.7776">IntroducirDatos</text><rect fill="#FFFFFF" height="40" rx="12.5" ry="12.5" style="stroke:#000000;stroke-width:0.5;" width="80" x="31" y="808.4866"/><text fill="#000000" font-family="sans-serif" font-size="14" lengthAdjust="spacing" textLength="70" x="36" y="833.7776">Confirmar</text><ellipse cx="125" cy="912.4866" fill="none" rx="11" ry="11" style="stroke:#222222;stroke-width:1.0;"/><ellipse cx="125" cy="912.4866" fill="#222222" rx="6" ry="6" style="stroke:#222222;stroke-width:1.0;"/><rect fill="#FFFFFF" height="40" rx="12.5" ry="12.5" style="stroke:#000000;stroke-width:0.5;" width="101" x="129.5" y="808.4866"/><text fill="#000000" font-family="sans-serif" font-size="14" lengthAdjust="spacing" textLength="91" x="134.5" y="833.7776">Gesti&#243;n Error</text><!--link *start*Working to ValidarEntorno--><g id="link_*start*Working_ValidarEntorno"><path d="M120,431.7966 C120,441.2066 120,450.0266 120,462.0066 " fill="none" id="*start*Working-to-ValidarEntorno" style="stroke:#000000;stroke-width:1.0;"/><polygon fill="#000000" points="120,468.0066,124,459.0066,120,463.0066,116,459.0066,120,468.0066" style="stroke:#000000;stroke-width:1.0;"/></g><!--link ValidarEntorno to LoginSAP--><g id="link_ValidarEntorno_LoginSAP"><path d="M89.63,508.8466 C84.11,513.8766 79.12,519.7866 76,526.4866 C70.96,537.3166 71.0999,544.8184 74.2899,555.4784 " fill="none" id="ValidarEntorno-to-LoginSAP" style="stroke:#000000;stroke-width:1.0;"/><polygon fill="#000000" points="76.01,561.2266,77.2619,551.4576,74.5766,556.4364,69.5977,553.7511,76.01,561.2266" style="stroke:#000000;stroke-width:1.0;"/><text fill="#000000" font-family="sans-serif" font-size="13" lengthAdjust="spacing" textLength="74" x="77" y="540.0549">SAP cerrado</text></g><!--link ValidarEntorno to Navegar--><g id="link_ValidarEntorno_Navegar"><path d="M141.22,508.8766 C145.61,514.1166 149.63,520.1166 152,526.4866 C166.26,564.7866 150.7859,606.9466 138.0759,632.9366 " fill="none" id="ValidarEntorno-to-Navegar" style="stroke:#000000;stroke-width:1.0;"/><polygon fill="#000000" points="135.44,638.3266,142.9872,631.9988,137.6366,633.8349,135.8005,628.4843,135.44,638.3266" style="stroke:#000000;stroke-width:1.0;"/><text fill="#000000" font-family="sans-serif" font-size="13" lengthAdjust="spacing" textLength="71" x="158.16" y="586.5549">SAP abierto</text></g><!--link LoginSAP to Navegar--><g id="link_LoginSAP_Navegar"><path d="M94.56,601.7966 C100.68,612.9966 105.481,621.7824 111.601,632.9724 " fill="none" id="LoginSAP-to-Navegar" style="stroke:#000000;stroke-width:1.0;"/><polygon fill="#000000" points="114.48,638.2366,113.6709,628.421,112.0808,633.8498,106.652,632.2597,114.48,638.2366" style="stroke:#000000;stroke-width:1.0;"/></g><!--link Navegar to IntroducirDatos--><g id="link_Navegar_IntroducirDatos"><path d="M125,678.7966 C125,689.9966 125,698.0466 125,709.2366 " fill="none" id="Navegar-to-IntroducirDatos" style="stroke:#000000;stroke-width:1.0;"/><polygon fill="#000000" points="125,715.2366,129,706.2366,125,710.2366,121,706.2366,125,715.2366" style="stroke:#000000;stroke-width:1.0;"/></g><!--link IntroducirDatos to Confirmar--><g id="link_IntroducirDatos_Confirmar"><path d="M113.55,755.7866 C104.38,771.2266 94.6614,787.6163 85.5014,803.0563 " fill="none" id="IntroducirDatos-to-Confirmar" style="stroke:#000000;stroke-width:1.0;"/><polygon fill="#000000" points="82.44,808.2166,90.4722,802.5171,84.9911,803.9164,83.5919,798.4353,82.44,808.2166" style="stroke:#000000;stroke-width:1.0;"/></g><!--link Confirmar to *end*Working--><g id="link_Confirmar_*end*Working"><path d="M77.48,848.9766 C81.57,859.7166 87.5,872.9566 95,883.4866 C101.04,891.9566 105.2548,896.1284 111.8048,901.3684 " fill="none" id="Confirmar-to-*end*Working" style="stroke:#000000;stroke-width:1.0;"/><polygon fill="#000000" points="116.49,905.1166,111.961,896.3708,112.5857,901.9931,106.9634,902.6178,116.49,905.1166" style="stroke:#000000;stroke-width:1.0;"/><text fill="#000000" font-family="sans-serif" font-size="13" lengthAdjust="spacing" textLength="53" x="96" y="880.0549">Galia OK</text></g><!--link IntroducirDatos to ErrorHandle--><g id="link_IntroducirDatos_ErrorHandle"><path d="M136.66,755.7866 C146,771.2266 155.9169,787.6413 165.2469,803.0813 " fill="none" id="IntroducirDatos-to-ErrorHandle" style="stroke:#000000;stroke-width:1.0;"/><polygon fill="#000000" points="168.35,808.2166,167.1188,798.445,165.7641,803.9372,160.2719,802.5824,168.35,808.2166" style="stroke:#000000;stroke-width:1.0;"/><text fill="#000000" font-family="sans-serif" font-size="13" lengthAdjust="spacing" textLength="30" x="158.43" y="787.0549">Fallo</text></g><!--link ErrorHandle to *end*Working--><g id="link_ErrorHandle_*end*Working"><path d="M170.57,848.8566 C165.1,859.4266 157.77,872.5566 150,883.4866 C144.71,890.9266 141.8964,894.2791 136.6564,899.7091 " fill="none" id="ErrorHandle-to-*end*Working" style="stroke:#000000;stroke-width:1.0;"/><polygon fill="#000000" points="132.49,904.0266,141.618,900.3279,135.962,900.4286,135.8613,894.7727,132.49,904.0266" style="stroke:#000000;stroke-width:1.0;"/><text fill="#000000" font-family="sans-serif" font-size="13" lengthAdjust="spacing" textLength="85" x="161.1" y="880.0549">Registra Error</text></g><g id="RobotContainer.SystemError"><rect fill="#FFFFFF" height="64.7539" rx="12.5" ry="12.5" style="stroke:#000000;stroke-width:0.5;" width="140" x="165.55" y="45.4883"/><line style="stroke:#000000;stroke-width:0.5;" x1="165.55" x2="305.55" y1="71.9766" y2="71.9766"/><text fill="#000000" font-family="sans-serif" font-size="14" lengthAdjust="spacing" textLength="76" x="197.55" y="64.0234">Modo Fallo</text><text fill="#000000" font-family="sans-serif" font-size="12" lengthAdjust="spacing" textLength="97" x="170.55" y="88.5781">Requiere reinicio</text><text fill="#000000" font-family="sans-serif" font-size="12" lengthAdjust="spacing" textLength="120" x="170.55" y="102.7109">manual o de sistema</text></g><!--link *start*RobotContainer to Desconectado--><g id="link_*start*RobotContainer_Desconectado"><path d="M137.55,88.0383 C137.55,104.7483 137.55,134.4483 137.55,156.7883 " fill="none" id="*start*RobotContainer-to-Desconectado" style="stroke:#000000;stroke-width:1.0;"/><polygon fill="#000000" points="137.55,162.7883,141.55,153.7883,137.55,157.7883,133.55,153.7883,137.55,162.7883" style="stroke:#000000;stroke-width:1.0;"/><text fill="#000000" font-family="sans-serif" font-size="13" lengthAdjust="spacing" textLength="88" x="138.55" y="141.8166">Inicio Servicio</text></g><!--link Desconectado to Idle--><g id="link_Desconectado_Idle"><path d="M137.55,203.6883 C137.55,218.4283 137.55,232.9883 137.55,250.0783 " fill="none" id="Desconectado-to-Idle" style="stroke:#000000;stroke-width:1.0;"/><polygon fill="#000000" points="137.55,256.0783,141.55,247.0783,137.55,251.0783,133.55,247.0783,137.55,256.0783" style="stroke:#000000;stroke-width:1.0;"/><text fill="#000000" font-family="sans-serif" font-size="13" lengthAdjust="spacing" textLength="111" x="138.55" y="234.8166">Iniciar / Login OK</text></g><!--link Idle to Working--><g id="link_Idle_Working"><path d="M71.29,318.0983 C63.83,323.9483 57.23,330.8683 52.55,338.9983 C48.78,345.5483 51.5,348.5183 52.55,355.9983 C53.37,361.8383 53.3001,361.7988 54.2801,367.7188 " fill="none" id="Idle-to-Working" style="stroke:#000000;stroke-width:1.0;"/><polygon fill="#000000" points="55.26,373.6383,57.7364,364.1058,54.4434,368.7054,49.8438,365.4124,55.26,373.6383" style="stroke:#000000;stroke-width:1.0;"/><text fill="#000000" font-family="sans-serif" font-size="13" lengthAdjust="spacing" textLength="147" x="53.55" y="352.5666">Detecta Galias 'En Cola'</text></g><!--link Working to Idle--><g id="link_Working_Idle"><path d="M199.47,373.8383 C200.22,367.8483 200.92,361.8983 201.55,355.9983 C202.35,348.4883 204.88,345.7783 201.55,338.9983 C198.33,332.4483 197.9902,330.8031 192.7802,325.5131 " fill="none" id="Working-to-Idle" style="stroke:#000000;stroke-width:1.0;"/><polygon fill="#000000" points="188.57,321.2383,192.0354,330.4573,192.0785,324.8006,197.7352,324.8437,188.57,321.2383" style="stroke:#000000;stroke-width:1.0;"/><text fill="#000000" font-family="sans-serif" font-size="13" lengthAdjust="spacing" textLength="70" x="204.23" y="352.5666">Fin de Cola</text></g><!--SRC=[VL9DRnD13Btlhx1wQK6gkEU0bBPfYIWG9H8zq1wSNRCTTTPUF9EY2kLNyHFuOynuFx81mMLasS_Fps_yw2e2Qjhu0XM5KbqRdN0HdXotgDX0Y1W9VXG05rW-rIexhYx5YyBTeukKyw8LQPUxy0cKSdDL-JvDxOkYOpfPorOYh5TpE9lNn95UdG06iFIbS4J7f3OGuClh1pW_VmjNIPembH4hWHaisPLEO4Fwd8F2i3tz56h4quG1Zz0kjC9kwmdEbfNljUGeZLc4bXGvZOoeXE6UYM6BWP9LK66KS3HvfL9ICFojH3AcEz7aPDslCrtfCtfNeIuuYhACvUEq8M-bThoPhvAY_9QaEgpoZuwF-4mrQj-0MqSQ3mqZtmGw5iTWuCYW9KULQbSwlRAj1ymVUSEcB_pgj9bGZXchv_rdS9D48tnw__VStimR2j7z-icmI9UavgL5xvA_dlwhO89BawxH-yFkqzf1pPfg5w9YLpRm_kXhFqZwL6Co9PkN4Aani7L_soM72PIS7UOzDyWxz23vK8BBOEpuZWxPhErKsaKdXzvqlpCuinnq3dSqImmnjtSE1ZXTS3BOuwdX1zY4-Jgn9HKPKnJxtm00]--></g></svg>